<svg xmlns="http://www.w3.org/2000/svg" xmlns:xlink="http://www.w3.org/1999/xlink" width="500" zoomAndPan="magnify" viewBox="0 0 375 374.999991" height="500" preserveAspectRatio="xMidYMid meet" version="1.0"><defs><g/><clipPath id="ce4e5aed15"><path d="M 58.941406 145.835938 L 316.191406 145.835938 L 316.191406 190.085938 L 58.941406 190.085938 Z M 58.941406 145.835938 " clip-rule="nonzero"/></clipPath></defs><g clip-path="url(#ce4e5aed15)"><path fill="#0079ff" d="M 71.34375 170.015625 C 73.1875 168.726562 74.144531 167.515625 74.144531 166.226562 C 74.144531 164.699219 73.1875 163.410156 71.984375 162.441406 C 71.34375 161.796875 68.863281 160.910156 70.464844 158.414062 C 84.066406 161.878906 127.277344 145.929688 164.882812 145.929688 C 188.488281 145.929688 211.132812 149.957031 233.855469 159.382812 C 248.179688 159.382812 303.46875 165.34375 316.191406 186.929688 C 315.554688 187.574219 314.671875 189.105469 314.351562 190.070312 L 311.230469 190.070312 C 311.550781 189.105469 312.191406 187.894531 312.753906 186.929688 C 304.671875 174.445312 246.898438 164.375 231.054688 164.375 C 208.332031 154.066406 185.367188 150.925781 164.882812 150.925781 C 125.117188 150.925781 97.191406 164.054688 75.425781 162.523438 C 75.425781 164.054688 77.90625 165.664062 77.90625 168.160156 C 77.90625 170.335938 76.945312 172.511719 75.425781 174.445312 C 70.464844 174.363281 62.945312 179.117188 62.945312 189.988281 L 58.941406 189.988281 C 58.941406 184.671875 58.941406 175.972656 71.34375 170.015625 Z M 71.34375 170.015625 " fill-opacity="1" fill-rule="nonzero"/></g><g fill="#00dfa2" fill-opacity="1"><g transform="translate(98.324324, 218.736314)"><g><path d="M 11.726562 0.722656 C 16.140625 0.722656 20.214844 -1.410156 22.042969 -4.910156 L 22.082031 -4.910156 L 22.195312 0 L 29.046875 0 L 31.558594 -15.988281 L 14.351562 -15.988281 L 13.515625 -10.660156 L 21.28125 -10.660156 C 20.671875 -8.527344 18.617188 -7.195312 16.066406 -7.195312 C 13.058594 -7.195312 11.230469 -9.25 11.230469 -12.5625 C 11.230469 -16.523438 13.742188 -19.949219 16.828125 -19.949219 C 18.578125 -19.949219 19.835938 -18.882812 20.023438 -17.132812 L 29.351562 -18.65625 C 29.160156 -24.480469 24.667969 -28.324219 17.511719 -28.324219 C 7.996094 -28.324219 1.179688 -20.40625 1.179688 -10.429688 C 1.179688 -3.578125 5.140625 0.722656 11.726562 0.722656 Z M 11.726562 0.722656 "/></g></g></g><g fill="#00dfa2" fill-opacity="1"><g transform="translate(130.3349, 218.736314)"><g><path d="M 15.074219 0.914062 C 25.011719 0.914062 32.320312 -6.625 32.320312 -16.40625 C 32.320312 -23.71875 27.144531 -28.324219 18.539062 -28.324219 C 8.566406 -28.324219 1.257812 -20.824219 1.257812 -11.003906 C 1.257812 -3.691406 6.472656 0.914062 15.074219 0.914062 Z M 16.105469 -7.460938 C 12.980469 -7.460938 11.269531 -9.289062 11.269531 -12.296875 C 11.269531 -16.257812 13.515625 -19.949219 17.4375 -19.949219 C 20.597656 -19.949219 22.308594 -18.121094 22.308594 -15.113281 C 22.308594 -11.191406 20.0625 -7.460938 16.105469 -7.460938 Z M 16.105469 -7.460938 "/></g></g></g><g fill="#00dfa2" fill-opacity="1"><g transform="translate(162.688032, 218.736314)"><g><path d="M 20.671875 0.609375 C 23.109375 0.609375 25.695312 -0.113281 27.449219 -1.257812 L 26.953125 -5.558594 C 26.535156 -5.367188 26 -5.175781 25.507812 -5.175781 C 24.820312 -5.175781 24.480469 -5.710938 24.363281 -6.433594 L 24.210938 -7.996094 C 24.058594 -9.480469 23.640625 -10.429688 22.613281 -10.851562 L 22.613281 -10.886719 C 26.609375 -12.488281 28.78125 -15.683594 28.78125 -19.566406 C 28.78125 -24.632812 25.011719 -27.410156 18.160156 -27.410156 L 4.53125 -27.410156 L 0.191406 0 L 10.089844 0 L 11.535156 -9.136719 L 12.867188 -9.136719 C 14.046875 -9.136719 14.464844 -8.183594 14.617188 -7.082031 L 14.886719 -4.570312 C 15.226562 -1.371094 17.398438 0.609375 20.671875 0.609375 Z M 12.488281 -15.226562 L 13.324219 -20.558594 L 16.257812 -20.558594 C 17.894531 -20.558594 18.804688 -19.757812 18.804688 -18.351562 C 18.804688 -16.332031 17.589844 -15.226562 15.417969 -15.226562 Z M 12.488281 -15.226562 "/></g></g></g><g fill="#00dfa2" fill-opacity="1"><g transform="translate(191.805851, 218.736314)"><g><path d="M 0.191406 0 L 10.089844 0 L 14.429688 -27.410156 L 4.53125 -27.410156 Z M 0.191406 0 "/></g></g></g><g fill="#f6fa70" fill-opacity="1"><g transform="translate(205.199317, 218.736314)"><g><path d="M 0.191406 0 L 18.539062 0 L 19.871094 -8.375 L 11.421875 -8.375 L 14.429688 -27.410156 L 4.53125 -27.410156 Z M 0.191406 0 "/></g></g></g><g fill="#f6fa70" fill-opacity="1"><g transform="translate(226.057569, 218.736314)"><g><path d="M 0.191406 0 L 18.539062 0 L 19.871094 -8.375 L 11.421875 -8.375 L 14.429688 -27.410156 L 4.53125 -27.410156 Z M 0.191406 0 "/></g></g></g><g fill="#f6fa70" fill-opacity="1"><g transform="translate(246.915822, 218.736314)"><g><path d="M -1.5625 0 L 8.148438 0 L 10.050781 -4.265625 L 17.625 -4.265625 L 17.96875 0 L 28.210938 0 L 23.753906 -27.410156 L 11.574219 -27.410156 Z M 12.371094 -10.660156 L 16.445312 -20.0625 L 16.523438 -20.0625 L 17.320312 -10.660156 Z M 12.371094 -10.660156 "/></g></g></g><g fill="#f6fa70" fill-opacity="1"><g transform="translate(128.452478, 246.507713)"><g><path d="M 3.15625 0.109375 C 2.601562 0.109375 2.132812 0 1.75 -0.21875 C 1.363281 -0.4375 1.066406 -0.738281 0.859375 -1.125 C 0.648438 -1.519531 0.546875 -1.976562 0.546875 -2.5 C 0.546875 -3.082031 0.640625 -3.625 0.828125 -4.125 C 1.023438 -4.632812 1.289062 -5.078125 1.625 -5.453125 C 1.96875 -5.828125 2.367188 -6.117188 2.828125 -6.328125 C 3.285156 -6.535156 3.78125 -6.640625 4.3125 -6.640625 C 5.0625 -6.640625 5.640625 -6.457031 6.046875 -6.09375 C 6.460938 -5.738281 6.679688 -5.242188 6.703125 -4.609375 L 5.8125 -4.609375 C 5.800781 -5.023438 5.660156 -5.351562 5.390625 -5.59375 C 5.117188 -5.832031 4.722656 -5.953125 4.203125 -5.953125 C 3.796875 -5.953125 3.421875 -5.863281 3.078125 -5.6875 C 2.734375 -5.519531 2.429688 -5.28125 2.171875 -4.96875 C 1.921875 -4.664062 1.722656 -4.304688 1.578125 -3.890625 C 1.441406 -3.484375 1.375 -3.039062 1.375 -2.5625 C 1.375 -1.9375 1.539062 -1.445312 1.875 -1.09375 C 2.207031 -0.75 2.675781 -0.578125 3.28125 -0.578125 C 3.800781 -0.578125 4.234375 -0.691406 4.578125 -0.921875 C 4.921875 -1.160156 5.171875 -1.484375 5.328125 -1.890625 L 6.21875 -1.890625 C 5.976562 -1.253906 5.59375 -0.757812 5.0625 -0.40625 C 4.53125 -0.0625 3.894531 0.109375 3.15625 0.109375 Z M 3.15625 0.109375 "/></g></g></g><g fill="#f6fa70" fill-opacity="1"><g transform="translate(138.880521, 246.507713)"><g><path d="M -0.125 0 L 3.4375 -6.53125 L 4.265625 -6.53125 L 5.5 0 L 4.6875 0 L 4.390625 -1.671875 L 1.609375 -1.671875 L 0.703125 0 Z M 1.9375 -2.296875 L 4.265625 -2.296875 L 3.671875 -5.59375 Z M 1.9375 -2.296875 "/></g></g></g><g fill="#f6fa70" fill-opacity="1"><g transform="translate(148.76822, 246.507713)"><g><path d="M 0.296875 0 L 1.4375 -6.53125 L 3.53125 -6.53125 C 3.976562 -6.53125 4.34375 -6.453125 4.625 -6.296875 C 4.90625 -6.148438 5.109375 -5.953125 5.234375 -5.703125 C 5.367188 -5.453125 5.4375 -5.179688 5.4375 -4.890625 C 5.4375 -4.347656 5.28125 -3.894531 4.96875 -3.53125 C 4.664062 -3.175781 4.253906 -2.9375 3.734375 -2.8125 L 4.671875 0 L 3.8125 0 L 2.96875 -2.703125 C 2.925781 -2.703125 2.878906 -2.703125 2.828125 -2.703125 L 1.546875 -2.703125 L 1.078125 0 Z M 1.65625 -3.3125 L 2.921875 -3.3125 C 3.441406 -3.3125 3.859375 -3.4375 4.171875 -3.6875 C 4.484375 -3.945312 4.640625 -4.320312 4.640625 -4.8125 C 4.640625 -5.101562 4.539062 -5.351562 4.34375 -5.5625 C 4.144531 -5.769531 3.820312 -5.875 3.375 -5.875 L 2.109375 -5.875 Z M 1.65625 -3.3125 "/></g></g></g><g fill="#f6fa70" fill-opacity="1"><g transform="translate(158.003764, 246.507713)"><g/></g></g><g fill="#f6fa70" fill-opacity="1"><g transform="translate(164.369866, 246.507713)"><g><path d="M 2.515625 0.109375 C 2.078125 0.109375 1.695312 0.0390625 1.375 -0.09375 C 1.0625 -0.238281 0.8125 -0.4375 0.625 -0.6875 C 0.445312 -0.945312 0.359375 -1.242188 0.359375 -1.578125 C 0.359375 -1.640625 0.359375 -1.703125 0.359375 -1.765625 C 0.367188 -1.828125 0.382812 -1.890625 0.40625 -1.953125 L 1.21875 -1.953125 C 1.195312 -1.867188 1.1875 -1.785156 1.1875 -1.703125 C 1.1875 -1.367188 1.3125 -1.09375 1.5625 -0.875 C 1.820312 -0.65625 2.164062 -0.546875 2.59375 -0.546875 C 3.09375 -0.546875 3.472656 -0.664062 3.734375 -0.90625 C 3.992188 -1.15625 4.125 -1.476562 4.125 -1.875 C 4.125 -2.082031 4.070312 -2.25 3.96875 -2.375 C 3.863281 -2.507812 3.722656 -2.625 3.546875 -2.71875 C 3.378906 -2.8125 3.1875 -2.890625 2.96875 -2.953125 C 2.757812 -3.023438 2.546875 -3.101562 2.328125 -3.1875 C 1.910156 -3.34375 1.597656 -3.546875 1.390625 -3.796875 C 1.191406 -4.054688 1.09375 -4.351562 1.09375 -4.6875 C 1.09375 -5.070312 1.1875 -5.410156 1.375 -5.703125 C 1.570312 -5.992188 1.84375 -6.222656 2.1875 -6.390625 C 2.539062 -6.554688 2.953125 -6.640625 3.421875 -6.640625 C 3.785156 -6.640625 4.109375 -6.578125 4.390625 -6.453125 C 4.671875 -6.328125 4.890625 -6.144531 5.046875 -5.90625 C 5.203125 -5.675781 5.28125 -5.414062 5.28125 -5.125 C 5.28125 -5.03125 5.269531 -4.929688 5.25 -4.828125 L 4.4375 -4.828125 C 4.4375 -4.859375 4.4375 -4.890625 4.4375 -4.921875 C 4.445312 -4.953125 4.453125 -4.984375 4.453125 -5.015625 C 4.453125 -5.253906 4.351562 -5.472656 4.15625 -5.671875 C 3.96875 -5.867188 3.679688 -5.96875 3.296875 -5.96875 C 2.890625 -5.96875 2.5625 -5.859375 2.3125 -5.640625 C 2.0625 -5.421875 1.9375 -5.140625 1.9375 -4.796875 C 1.9375 -4.566406 2.007812 -4.378906 2.15625 -4.234375 C 2.3125 -4.097656 2.515625 -3.984375 2.765625 -3.890625 C 3.023438 -3.796875 3.304688 -3.691406 3.609375 -3.578125 C 3.984375 -3.441406 4.300781 -3.242188 4.5625 -2.984375 C 4.832031 -2.722656 4.96875 -2.382812 4.96875 -1.96875 C 4.96875 -1.550781 4.863281 -1.1875 4.65625 -0.875 C 4.445312 -0.5625 4.160156 -0.316406 3.796875 -0.140625 C 3.429688 0.0234375 3.003906 0.109375 2.515625 0.109375 Z M 2.515625 0.109375 "/></g></g></g><g fill="#f6fa70" fill-opacity="1"><g transform="translate(173.577467, 246.507713)"><g><path d="M 0.296875 0 L 1.4375 -6.53125 L 3.578125 -6.53125 C 4.023438 -6.53125 4.390625 -6.453125 4.671875 -6.296875 C 4.960938 -6.148438 5.175781 -5.953125 5.3125 -5.703125 C 5.445312 -5.453125 5.515625 -5.179688 5.515625 -4.890625 C 5.515625 -4.429688 5.40625 -4.039062 5.1875 -3.71875 C 4.96875 -3.394531 4.660156 -3.144531 4.265625 -2.96875 C 3.878906 -2.800781 3.429688 -2.71875 2.921875 -2.71875 L 1.5625 -2.71875 L 1.078125 0 Z M 1.671875 -3.390625 L 3.015625 -3.390625 C 3.546875 -3.390625 3.957031 -3.507812 4.25 -3.75 C 4.550781 -3.988281 4.703125 -4.351562 4.703125 -4.84375 C 4.703125 -5.132812 4.601562 -5.378906 4.40625 -5.578125 C 4.207031 -5.773438 3.890625 -5.875 3.453125 -5.875 L 2.109375 -5.875 Z M 1.671875 -3.390625 "/></g></g></g><g fill="#f6fa70" fill-opacity="1"><g transform="translate(182.710544, 246.507713)"><g><path d="M 0.296875 0 L 1.4375 -6.53125 L 5.21875 -6.53125 L 5.09375 -5.90625 L 2.109375 -5.90625 L 1.703125 -3.59375 L 4.40625 -3.59375 L 4.3125 -2.984375 L 1.59375 -2.984375 L 1.1875 -0.625 L 4.171875 -0.625 L 4.0625 0 Z M 0.296875 0 "/></g></g></g><g fill="#f6fa70" fill-opacity="1"><g transform="translate(191.46164, 246.507713)"><g><path d="M 3.15625 0.109375 C 2.601562 0.109375 2.132812 0 1.75 -0.21875 C 1.363281 -0.4375 1.066406 -0.738281 0.859375 -1.125 C 0.648438 -1.519531 0.546875 -1.976562 0.546875 -2.5 C 0.546875 -3.082031 0.640625 -3.625 0.828125 -4.125 C 1.023438 -4.632812 1.289062 -5.078125 1.625 -5.453125 C 1.96875 -5.828125 2.367188 -6.117188 2.828125 -6.328125 C 3.285156 -6.535156 3.78125 -6.640625 4.3125 -6.640625 C 5.0625 -6.640625 5.640625 -6.457031 6.046875 -6.09375 C 6.460938 -5.738281 6.679688 -5.242188 6.703125 -4.609375 L 5.8125 -4.609375 C 5.800781 -5.023438 5.660156 -5.351562 5.390625 -5.59375 C 5.117188 -5.832031 4.722656 -5.953125 4.203125 -5.953125 C 3.796875 -5.953125 3.421875 -5.863281 3.078125 -5.6875 C 2.734375 -5.519531 2.429688 -5.28125 2.171875 -4.96875 C 1.921875 -4.664062 1.722656 -4.304688 1.578125 -3.890625 C 1.441406 -3.484375 1.375 -3.039062 1.375 -2.5625 C 1.375 -1.9375 1.539062 -1.445312 1.875 -1.09375 C 2.207031 -0.75 2.675781 -0.578125 3.28125 -0.578125 C 3.800781 -0.578125 4.234375 -0.691406 4.578125 -0.921875 C 4.921875 -1.160156 5.171875 -1.484375 5.328125 -1.890625 L 6.21875 -1.890625 C 5.976562 -1.253906 5.59375 -0.757812 5.0625 -0.40625 C 4.53125 -0.0625 3.894531 0.109375 3.15625 0.109375 Z M 3.15625 0.109375 "/></g></g></g><g fill="#f6fa70" fill-opacity="1"><g transform="translate(201.889685, 246.507713)"><g><path d="M 0.296875 0 L 1.4375 -6.53125 L 2.21875 -6.53125 L 1.078125 0 Z M 0.296875 0 "/></g></g></g><g fill="#f6fa70" fill-opacity="1"><g transform="translate(207.76202, 246.507713)"><g><path d="M -0.125 0 L 3.4375 -6.53125 L 4.265625 -6.53125 L 5.5 0 L 4.6875 0 L 4.390625 -1.671875 L 1.609375 -1.671875 L 0.703125 0 Z M 1.9375 -2.296875 L 4.265625 -2.296875 L 3.671875 -5.59375 Z M 1.9375 -2.296875 "/></g></g></g><g fill="#f6fa70" fill-opacity="1"><g transform="translate(217.64972, 246.507713)"><g><path d="M 0.296875 0 L 1.4375 -6.53125 L 2.21875 -6.53125 L 1.1875 -0.625 L 4.21875 -0.625 L 4.109375 0 Z M 0.296875 0 "/></g></g></g><g fill="#f6fa70" fill-opacity="1"><g transform="translate(226.251757, 246.507713)"><g><path d="M 0.296875 0 L 1.4375 -6.53125 L 2.21875 -6.53125 L 1.078125 0 Z M 0.296875 0 "/></g></g></g><g fill="#f6fa70" fill-opacity="1"><g transform="translate(232.124087, 246.507713)"><g><path d="M 2.515625 0.109375 C 2.078125 0.109375 1.695312 0.0390625 1.375 -0.09375 C 1.0625 -0.238281 0.8125 -0.4375 0.625 -0.6875 C 0.445312 -0.945312 0.359375 -1.242188 0.359375 -1.578125 C 0.359375 -1.640625 0.359375 -1.703125 0.359375 -1.765625 C 0.367188 -1.828125 0.382812 -1.890625 0.40625 -1.953125 L 1.21875 -1.953125 C 1.195312 -1.867188 1.1875 -1.785156 1.1875 -1.703125 C 1.1875 -1.367188 1.3125 -1.09375 1.5625 -0.875 C 1.820312 -0.65625 2.164062 -0.546875 2.59375 -0.546875 C 3.09375 -0.546875 3.472656 -0.664062 3.734375 -0.90625 C 3.992188 -1.15625 4.125 -1.476562 4.125 -1.875 C 4.125 -2.082031 4.070312 -2.25 3.96875 -2.375 C 3.863281 -2.507812 3.722656 -2.625 3.546875 -2.71875 C 3.378906 -2.8125 3.1875 -2.890625 2.96875 -2.953125 C 2.757812 -3.023438 2.546875 -3.101562 2.328125 -3.1875 C 1.910156 -3.34375 1.597656 -3.546875 1.390625 -3.796875 C 1.191406 -4.054688 1.09375 -4.351562 1.09375 -4.6875 C 1.09375 -5.070312 1.1875 -5.410156 1.375 -5.703125 C 1.570312 -5.992188 1.84375 -6.222656 2.1875 -6.390625 C 2.539062 -6.554688 2.953125 -6.640625 3.421875 -6.640625 C 3.785156 -6.640625 4.109375 -6.578125 4.390625 -6.453125 C 4.671875 -6.328125 4.890625 -6.144531 5.046875 -5.90625 C 5.203125 -5.675781 5.28125 -5.414062 5.28125 -5.125 C 5.28125 -5.03125 5.269531 -4.929688 5.25 -4.828125 L 4.4375 -4.828125 C 4.4375 -4.859375 4.4375 -4.890625 4.4375 -4.921875 C 4.445312 -4.953125 4.453125 -4.984375 4.453125 -5.015625 C 4.453125 -5.253906 4.351562 -5.472656 4.15625 -5.671875 C 3.96875 -5.867188 3.679688 -5.96875 3.296875 -5.96875 C 2.890625 -5.96875 2.5625 -5.859375 2.3125 -5.640625 C 2.0625 -5.421875 1.9375 -5.140625 1.9375 -4.796875 C 1.9375 -4.566406 2.007812 -4.378906 2.15625 -4.234375 C 2.3125 -4.097656 2.515625 -3.984375 2.765625 -3.890625 C 3.023438 -3.796875 3.304688 -3.691406 3.609375 -3.578125 C 3.984375 -3.441406 4.300781 -3.242188 4.5625 -2.984375 C 4.832031 -2.722656 4.96875 -2.382812 4.96875 -1.96875 C 4.96875 -1.550781 4.863281 -1.1875 4.65625 -0.875 C 4.445312 -0.5625 4.160156 -0.316406 3.796875 -0.140625 C 3.429688 0.0234375 3.003906 0.109375 2.515625 0.109375 Z M 2.515625 0.109375 "/></g></g></g><g fill="#f6fa70" fill-opacity="1"><g transform="translate(241.331682, 246.507713)"><g><path d="M 1.8125 0 L 2.84375 -5.90625 L 0.90625 -5.90625 L 1.015625 -6.53125 L 5.6875 -6.53125 L 5.578125 -5.90625 L 3.625 -5.90625 L 2.59375 0 Z M 1.8125 0 "/></g></g></g></svg>