<svg xmlns="http://www.w3.org/2000/svg" xmlns:xlink="http://www.w3.org/1999/xlink" width="500" zoomAndPan="magnify" viewBox="0 0 375 374.999991" height="500" preserveAspectRatio="xMidYMid meet" version="1.0"><defs><g/><clipPath id="f1d1e88763"><path d="M 58.941406 145.835938 L 316.191406 145.835938 L 316.191406 190.085938 L 58.941406 190.085938 Z M 58.941406 145.835938 " clip-rule="nonzero"/></clipPath></defs><g clip-path="url(#f1d1e88763)"><path fill="#ff0060" d="M 71.34375 170.015625 C 73.1875 168.726562 74.144531 167.515625 74.144531 166.226562 C 74.144531 164.699219 73.1875 163.410156 71.984375 162.441406 C 71.34375 161.796875 68.863281 160.910156 70.464844 158.414062 C 84.066406 161.878906 127.277344 145.929688 164.882812 145.929688 C 188.488281 145.929688 211.132812 149.957031 233.855469 159.382812 C 248.179688 159.382812 303.46875 165.34375 316.191406 186.929688 C 315.554688 187.574219 314.671875 189.105469 314.351562 190.070312 L 311.230469 190.070312 C 311.550781 189.105469 312.191406 187.894531 312.753906 186.929688 C 304.671875 174.445312 246.898438 164.375 231.054688 164.375 C 208.332031 154.066406 185.367188 150.925781 164.882812 150.925781 C 125.117188 150.925781 97.191406 164.054688 75.425781 162.523438 C 75.425781 164.054688 77.90625 165.664062 77.90625 168.160156 C 77.90625 170.335938 76.945312 172.511719 75.425781 174.445312 C 70.464844 174.363281 62.945312 179.117188 62.945312 189.988281 L 58.941406 189.988281 C 58.941406 184.671875 58.941406 175.972656 71.34375 170.015625 Z M 71.34375 170.015625 " fill-opacity="1" fill-rule="nonzero"/></g><g fill="#ff0060" fill-opacity="1"><g transform="translate(98.324324, 218.736314)"><g><path d="M 11.726562 0.722656 C 16.140625 0.722656 20.214844 -1.410156 22.042969 -4.910156 L 22.082031 -4.910156 L 22.195312 0 L 29.046875 0 L 31.558594 -15.988281 L 14.351562 -15.988281 L 13.515625 -10.660156 L 21.28125 -10.660156 C 20.671875 -8.527344 18.617188 -7.195312 16.066406 -7.195312 C 13.058594 -7.195312 11.230469 -9.25 11.230469 -12.5625 C 11.230469 -16.523438 13.742188 -19.949219 16.828125 -19.949219 C 18.578125 -19.949219 19.835938 -18.882812 20.023438 -17.132812 L 29.351562 -18.65625 C 29.160156 -24.480469 24.667969 -28.324219 17.511719 -28.324219 C 7.996094 -28.324219 1.179688 -20.40625 1.179688 -10.429688 C 1.179688 -3.578125 5.140625 0.722656 11.726562 0.722656 Z M 11.726562 0.722656 "/></g></g></g><g fill="#ff0060" fill-opacity="1"><g transform="translate(130.3349, 218.736314)"><g><path d="M 15.074219 0.914062 C 25.011719 0.914062 32.320312 -6.625 32.320312 -16.40625 C 32.320312 -23.71875 27.144531 -28.324219 18.539062 -28.324219 C 8.566406 -28.324219 1.257812 -20.824219 1.257812 -11.003906 C 1.257812 -3.691406 6.472656 0.914062 15.074219 0.914062 Z M 16.105469 -7.460938 C 12.980469 -7.460938 11.269531 -9.289062 11.269531 -12.296875 C 11.269531 -16.257812 13.515625 -19.949219 17.4375 -19.949219 C 20.597656 -19.949219 22.308594 -18.121094 22.308594 -15.113281 C 22.308594 -11.191406 20.0625 -7.460938 16.105469 -7.460938 Z M 16.105469 -7.460938 "/></g></g></g><g fill="#ff0060" fill-opacity="1"><g transform="translate(162.688032, 218.736314)"><g><path d="M 20.671875 0.609375 C 23.109375 0.609375 25.695312 -0.113281 27.449219 -1.257812 L 26.953125 -5.558594 C 26.535156 -5.367188 26 -5.175781 25.507812 -5.175781 C 24.820312 -5.175781 24.480469 -5.710938 24.363281 -6.433594 L 24.210938 -7.996094 C 24.058594 -9.480469 23.640625 -10.429688 22.613281 -10.851562 L 22.613281 -10.886719 C 26.609375 -12.488281 28.78125 -15.683594 28.78125 -19.566406 C 28.78125 -24.632812 25.011719 -27.410156 18.160156 -27.410156 L 4.53125 -27.410156 L 0.191406 0 L 10.089844 0 L 11.535156 -9.136719 L 12.867188 -9.136719 C 14.046875 -9.136719 14.464844 -8.183594 14.617188 -7.082031 L 14.886719 -4.570312 C 15.226562 -1.371094 17.398438 0.609375 20.671875 0.609375 Z M 12.488281 -15.226562 L 13.324219 -20.558594 L 16.257812 -20.558594 C 17.894531 -20.558594 18.804688 -19.757812 18.804688 -18.351562 C 18.804688 -16.332031 17.589844 -15.226562 15.417969 -15.226562 Z M 12.488281 -15.226562 "/></g></g></g><g fill="#ff0060" fill-opacity="1"><g transform="translate(191.805851, 218.736314)"><g><path d="M 0.191406 0 L 10.089844 0 L 14.429688 -27.410156 L 4.53125 -27.410156 Z M 0.191406 0 "/></g></g></g><g fill="#323339" fill-opacity="1"><g transform="translate(205.199317, 218.736314)"><g><path d="M 0.191406 0 L 18.539062 0 L 19.871094 -8.375 L 11.421875 -8.375 L 14.429688 -27.410156 L 4.53125 -27.410156 Z M 0.191406 0 "/></g></g></g><g fill="#323339" fill-opacity="1"><g transform="translate(226.057569, 218.736314)"><g><path d="M 0.191406 0 L 18.539062 0 L 19.871094 -8.375 L 11.421875 -8.375 L 14.429688 -27.410156 L 4.53125 -27.410156 Z M 0.191406 0 "/></g></g></g><g fill="#323339" fill-opacity="1"><g transform="translate(246.915822, 218.736314)"><g><path d="M -1.5625 0 L 8.148438 0 L 10.050781 -4.265625 L 17.625 -4.265625 L 17.96875 0 L 28.210938 0 L 23.753906 -27.410156 L 11.574219 -27.410156 Z M 12.371094 -10.660156 L 16.445312 -20.0625 L 16.523438 -20.0625 L 17.320312 -10.660156 Z M 12.371094 -10.660156 "/></g></g></g><g fill="#ff0060" fill-opacity="1"><g transform="translate(80.858297, 250.197742)"><g><path d="M 5.945312 0.367188 C 9.085938 0.367188 11.597656 -1.640625 12.351562 -4.6875 L 8.71875 -5.070312 C 8.320312 -3.832031 7.355469 -3.019531 6.25 -3.019531 C 5.164062 -3.019531 4.550781 -3.738281 4.550781 -4.949219 C 4.550781 -6.421875 5.285156 -8.027344 6.695312 -8.027344 C 7.601562 -8.027344 8.167969 -7.324219 8.199219 -6.222656 L 11.921875 -7.019531 C 12.042969 -9.667969 10.191406 -11.398438 6.988281 -11.398438 C 3.1875 -11.398438 0.535156 -8.367188 0.535156 -4.566406 C 0.535156 -1.472656 2.605469 0.367188 5.945312 0.367188 Z M 5.945312 0.367188 "/></g></g></g><g fill="#ff0060" fill-opacity="1"><g transform="translate(99.363535, 250.197742)"><g><path d="M -0.628906 0 L 3.277344 0 L 4.046875 -1.714844 L 7.09375 -1.714844 L 7.230469 0 L 11.355469 0 L 9.5625 -11.03125 L 4.65625 -11.03125 Z M 4.980469 -4.289062 L 6.621094 -8.074219 L 6.648438 -8.074219 L 6.972656 -4.289062 Z M 4.980469 -4.289062 "/></g></g></g><g fill="#ff0060" fill-opacity="1"><g transform="translate(117.424592, 250.197742)"><g><path d="M 8.320312 0.246094 C 9.300781 0.246094 10.34375 -0.046875 11.046875 -0.503906 L 10.847656 -2.238281 C 10.679688 -2.160156 10.464844 -2.082031 10.265625 -2.082031 C 9.992188 -2.082031 9.851562 -2.296875 9.804688 -2.589844 L 9.746094 -3.21875 C 9.683594 -3.816406 9.515625 -4.199219 9.101562 -4.367188 L 9.101562 -4.382812 C 10.710938 -5.027344 11.582031 -6.3125 11.582031 -7.875 C 11.582031 -9.914062 10.066406 -11.03125 7.308594 -11.03125 L 1.824219 -11.03125 L 0.078125 0 L 4.058594 0 L 4.644531 -3.675781 L 5.179688 -3.675781 C 5.652344 -3.675781 5.824219 -3.292969 5.882812 -2.851562 L 5.992188 -1.839844 C 6.128906 -0.550781 7.003906 0.246094 8.320312 0.246094 Z M 5.027344 -6.128906 L 5.363281 -8.273438 L 6.542969 -8.273438 C 7.203125 -8.273438 7.570312 -7.953125 7.570312 -7.386719 C 7.570312 -6.574219 7.078125 -6.128906 6.207031 -6.128906 Z M 5.027344 -6.128906 "/></g></g></g><g fill="#ff0060" fill-opacity="1"><g transform="translate(135.225271, 250.197742)"><g/></g></g><g fill="#ff0060" fill-opacity="1"><g transform="translate(143.790115, 250.197742)"><g><path d="M 5.164062 0.367188 C 8.472656 0.367188 10.695312 -1.226562 10.695312 -3.707031 C 10.695312 -5.53125 9.636719 -6.542969 7.171875 -7.019531 L 6.207031 -7.21875 C 5.410156 -7.371094 4.933594 -7.617188 4.933594 -8 C 4.933594 -8.367188 5.316406 -8.640625 5.851562 -8.640625 C 6.695312 -8.640625 7.15625 -8.167969 7.125 -7.445312 L 10.710938 -8.167969 C 10.695312 -10.160156 8.808594 -11.398438 5.976562 -11.398438 C 2.988281 -11.398438 1.042969 -9.820312 1.042969 -7.277344 C 1.042969 -5.53125 2.097656 -4.582031 4.582031 -4.121094 L 5.53125 -3.9375 C 6.328125 -3.785156 6.804688 -3.523438 6.804688 -3.109375 C 6.804688 -2.667969 6.296875 -2.40625 5.5 -2.40625 C 4.429688 -2.40625 3.875 -2.941406 3.847656 -3.832031 L 0.199219 -3.234375 C 0.277344 -1.011719 2.222656 0.367188 5.164062 0.367188 Z M 5.164062 0.367188 "/></g></g></g><g fill="#ff0060" fill-opacity="1"><g transform="translate(160.779022, 250.197742)"><g><path d="M 0.078125 0 L 4.046875 0 L 4.535156 -3.09375 L 6.3125 -3.09375 C 9.621094 -3.09375 11.445312 -4.75 11.445312 -7.585938 C 11.445312 -9.835938 9.992188 -11.03125 7.355469 -11.03125 L 1.824219 -11.03125 Z M 4.996094 -5.851562 L 5.347656 -8.273438 L 6.191406 -8.273438 C 6.988281 -8.273438 7.429688 -7.921875 7.429688 -7.261719 C 7.429688 -6.359375 6.847656 -5.851562 5.808594 -5.851562 Z M 4.996094 -5.851562 "/></g></g></g><g fill="#ff0060" fill-opacity="1"><g transform="translate(178.043624, 250.197742)"><g><path d="M 0.078125 0 L 7.953125 0 L 8.425781 -3.066406 L 4.382812 -3.066406 L 4.582031 -4.289062 L 7.859375 -4.289062 L 8.273438 -6.894531 L 4.996094 -6.894531 L 5.164062 -7.96875 L 9.054688 -7.96875 L 9.546875 -11.03125 L 1.824219 -11.03125 Z M 0.078125 0 "/></g></g></g><g fill="#ff0060" fill-opacity="1"><g transform="translate(192.995431, 250.197742)"><g><path d="M 5.945312 0.367188 C 9.085938 0.367188 11.597656 -1.640625 12.351562 -4.6875 L 8.71875 -5.070312 C 8.320312 -3.832031 7.355469 -3.019531 6.25 -3.019531 C 5.164062 -3.019531 4.550781 -3.738281 4.550781 -4.949219 C 4.550781 -6.421875 5.285156 -8.027344 6.695312 -8.027344 C 7.601562 -8.027344 8.167969 -7.324219 8.199219 -6.222656 L 11.921875 -7.019531 C 12.042969 -9.667969 10.191406 -11.398438 6.988281 -11.398438 C 3.1875 -11.398438 0.535156 -8.367188 0.535156 -4.566406 C 0.535156 -1.472656 2.605469 0.367188 5.945312 0.367188 Z M 5.945312 0.367188 "/></g></g></g><g fill="#ff0060" fill-opacity="1"><g transform="translate(211.500664, 250.197742)"><g><path d="M 0.078125 0 L 4.058594 0 L 5.808594 -11.03125 L 1.824219 -11.03125 Z M 0.078125 0 "/></g></g></g><g fill="#ff0060" fill-opacity="1"><g transform="translate(222.975631, 250.197742)"><g><path d="M -0.628906 0 L 3.277344 0 L 4.046875 -1.714844 L 7.09375 -1.714844 L 7.230469 0 L 11.355469 0 L 9.5625 -11.03125 L 4.65625 -11.03125 Z M 4.980469 -4.289062 L 6.621094 -8.074219 L 6.648438 -8.074219 L 6.972656 -4.289062 Z M 4.980469 -4.289062 "/></g></g></g><g fill="#ff0060" fill-opacity="1"><g transform="translate(241.036684, 250.197742)"><g><path d="M 0.078125 0 L 7.460938 0 L 8 -3.371094 L 4.597656 -3.371094 L 5.808594 -11.03125 L 1.824219 -11.03125 Z M 0.078125 0 "/></g></g></g><g fill="#ff0060" fill-opacity="1"><g transform="translate(255.513688, 250.197742)"><g><path d="M 0.078125 0 L 4.058594 0 L 5.808594 -11.03125 L 1.824219 -11.03125 Z M 0.078125 0 "/></g></g></g><g fill="#ff0060" fill-opacity="1"><g transform="translate(266.988655, 250.197742)"><g><path d="M 5.164062 0.367188 C 8.472656 0.367188 10.695312 -1.226562 10.695312 -3.707031 C 10.695312 -5.53125 9.636719 -6.542969 7.171875 -7.019531 L 6.207031 -7.21875 C 5.410156 -7.371094 4.933594 -7.617188 4.933594 -8 C 4.933594 -8.367188 5.316406 -8.640625 5.851562 -8.640625 C 6.695312 -8.640625 7.15625 -8.167969 7.125 -7.445312 L 10.710938 -8.167969 C 10.695312 -10.160156 8.808594 -11.398438 5.976562 -11.398438 C 2.988281 -11.398438 1.042969 -9.820312 1.042969 -7.277344 C 1.042969 -5.53125 2.097656 -4.582031 4.582031 -4.121094 L 5.53125 -3.9375 C 6.328125 -3.785156 6.804688 -3.523438 6.804688 -3.109375 C 6.804688 -2.667969 6.296875 -2.40625 5.5 -2.40625 C 4.429688 -2.40625 3.875 -2.941406 3.847656 -3.832031 L 0.199219 -3.234375 C 0.277344 -1.011719 2.222656 0.367188 5.164062 0.367188 Z M 5.164062 0.367188 "/></g></g></g><g fill="#ff0060" fill-opacity="1"><g transform="translate(283.977569, 250.197742)"><g><path d="M 2.46875 0 L 6.449219 0 L 7.660156 -7.660156 L 10.449219 -7.660156 L 10.984375 -11.03125 L 1.425781 -11.03125 L 0.890625 -7.660156 L 3.675781 -7.660156 Z M 2.46875 0 "/></g></g></g></svg>